<?xml version="1.0" encoding="UTF-8" standalone="no"?>
<!-- Created with Inkscape (http://www.inkscape.org/) -->

<svg
   xmlns:dc="http://purl.org/dc/elements/1.1/"
   xmlns:cc="http://creativecommons.org/ns#"
   xmlns:rdf="http://www.w3.org/1999/02/22-rdf-syntax-ns#"
   xmlns:svg="http://www.w3.org/2000/svg"
   xmlns="http://www.w3.org/2000/svg"
   xmlns:sodipodi="http://sodipodi.sourceforge.net/DTD/sodipodi-0.dtd"
   xmlns:inkscape="http://www.inkscape.org/namespaces/inkscape"
   width="744.09448819"
   height="1052.3622047"
   id="svg2"
   version="1.1"
   inkscape:version="0.48.4 r9939"
   sodipodi:docname="fm.svg">
  <defs
     id="defs4" />
  <sodipodi:namedview
     id="base"
     pagecolor="#ffffff"
     bordercolor="#666666"
     borderopacity="1.0"
     inkscape:pageopacity="0.0"
     inkscape:pageshadow="2"
     inkscape:zoom="1.979899"
     inkscape:cx="438.26565"
     inkscape:cy="565.51247"
     inkscape:document-units="px"
     inkscape:current-layer="layer1"
     showgrid="false"
     inkscape:window-width="1920"
     inkscape:window-height="1200"
     inkscape:window-x="0"
     inkscape:window-y="0"
     inkscape:window-maximized="0" />
  <metadata
     id="metadata7">
    <rdf:RDF>
      <cc:Work
         rdf:about="">
        <dc:format>image/svg+xml</dc:format>
        <dc:type
           rdf:resource="http://purl.org/dc/dcmitype/StillImage" />
        <dc:title></dc:title>
      </cc:Work>
    </rdf:RDF>
  </metadata>
  <g
     inkscape:label="Layer 1"
     inkscape:groupmode="layer"
     id="layer1">
    <text
       xml:space="preserve"
       style="font-size:56px;font-style:normal;font-variant:normal;font-weight:bold;font-stretch:normal;line-height:125%;letter-spacing:0px;word-spacing:0px;fill:#000000;fill-opacity:1;stroke:none;font-family:Arial;-inkscape-font-specification:Arial Bold"
       x="347.99756"
       y="411.92548"
       id="text2989"
       sodipodi:linespacing="125%"><tspan
         sodipodi:role="line"
         id="tspan2991"
         x="347.99756"
         y="411.92548">fm</tspan></text>
    <path
       style="opacity:0.73529412;fill:#ffffff"
       id="path2993"
       d="m 463.25386,353.82176 c -0.81338,1.38108 -1.68762,2.72252 -2.59232,4.04488 -0.60921,0.88265 -1.28995,1.71458 -1.85231,2.62839 -0.43939,0.67245 -0.80613,1.3883 -1.2123,2.08183 -0.41779,0.69587 -0.83961,1.3887 -1.22886,2.10147 -0.40391,0.68896 -0.70512,1.37857 -0.85249,2.1649 -0.13202,0.9518 -0.1288,1.9155 -0.13413,2.87442 0.0714,1.04173 -0.11637,2.06059 -0.27482,3.08396 -0.15125,0.98957 -0.1893,1.99054 -0.21299,2.98973 -0.0168,1.00776 -0.0138,2.01572 -0.0129,3.02358 10e-4,0.84184 0.002,1.68369 0.002,2.52553 l -6.69068,3.40952 0,0 c -3.9e-4,-0.84173 -9.6e-4,-1.68345 -0.002,-2.52518 -0.001,-1.01247 -0.004,-2.02499 0.006,-3.03743 0.016,-1.0267 0.0401,-2.05549 0.17123,-3.07525 0.1395,-0.99521 0.40049,-1.97498 0.32197,-2.98725 6.2e-4,-0.98961 -0.005,-1.98119 0.0786,-2.96811 0.0947,-0.83141 0.22079,-1.67708 0.75633,-2.35351 0.29307,-0.76478 0.7486,-1.47698 1.21437,-2.14524 0.35995,-0.74085 0.83533,-1.41059 1.17879,-2.15783 0.65348,-0.85655 1.16006,-1.82885 1.87717,-2.64707 0.92472,-1.29475 1.84812,-2.59814 2.59636,-4.00451 l 6.8629,-3.02683 z"
       inkscape:connector-curvature="0"
       sodipodi:nodetypes="ccccccccccccccccccccccccc" />
    <path
       style="fill:#000000;fill-opacity:1;stroke:#000000;stroke-width:1px;stroke-linecap:butt;stroke-linejoin:miter;stroke-opacity:1"
       d="m 442.44682,357.88231 c -8.5863,2.0203 -3.03046,28.28427 -3.03046,28.28427 l 9.59645,1.51523 1.01015,-29.7995 z"
       id="path2995"
       inkscape:connector-curvature="0"
       sodipodi:nodetypes="ccccc" />
    <path
       style="opacity:0.73529412;fill:#ffffff"
       id="path2993-6"
       d="m 488.66006,366.64935 c -0.81338,1.38108 -1.68762,2.72252 -2.59232,4.04488 -0.60921,0.88265 -1.28995,1.71458 -1.85231,2.62839 -0.43939,0.67245 -0.80613,1.3883 -1.2123,2.08183 -0.41779,0.69587 -0.83961,1.3887 -1.22886,2.10147 -0.40391,0.68896 -0.70512,1.37857 -0.85249,2.1649 -0.13202,0.9518 -0.1288,1.9155 -0.13413,2.87442 0.0714,1.04173 -0.11637,2.06059 -0.27482,3.08396 -0.15125,0.98957 -0.1893,1.99054 -0.21299,2.98973 -0.0168,1.00776 -0.0138,2.01572 -0.0129,3.02358 10e-4,0.84184 0.002,1.68369 0.002,2.52553 0,0 -6.69068,3.40952 -6.69068,3.40952 l 0,0 c -3.9e-4,-0.84173 -9.6e-4,-1.68345 -0.002,-2.52518 -10e-4,-1.01247 -0.004,-2.02499 0.006,-3.03743 0.016,-1.0267 0.0401,-2.05549 0.17123,-3.07525 0.1395,-0.99521 0.40049,-1.97498 0.32197,-2.98725 6.2e-4,-0.98961 -0.005,-1.98119 0.0786,-2.96811 0.0947,-0.83141 0.22079,-1.67708 0.75633,-2.35351 0.29307,-0.76478 0.7486,-1.47698 1.21437,-2.14524 0.35995,-0.74085 0.83533,-1.41059 1.17879,-2.15783 0.65348,-0.85655 1.16006,-1.82885 1.87717,-2.64707 0.92472,-1.29475 1.84812,-2.59814 2.59636,-4.00451 0,0 6.8629,-3.02683 6.8629,-3.02683 z"
       inkscape:connector-curvature="0" />
    <path
       style="opacity:0.73529412;fill:#ffffff"
       id="path2993-1"
       d="m 469.72894,395.36908 c 0.81338,-1.38108 1.68762,-2.72252 2.59232,-4.04488 0.60921,-0.88265 1.28995,-1.71458 1.85231,-2.62839 0.43939,-0.67245 0.80613,-1.3883 1.2123,-2.08183 0.41779,-0.69587 0.83961,-1.3887 1.22886,-2.10147 0.40391,-0.68896 0.70512,-1.37857 0.85249,-2.1649 0.13202,-0.9518 0.1288,-1.9155 0.13413,-2.87442 -0.0714,-1.04173 0.11637,-2.06059 0.27482,-3.08396 0.15125,-0.98957 0.1893,-1.99054 0.21299,-2.98973 0.0168,-1.00776 0.0138,-2.01572 0.0129,-3.02358 -10e-4,-0.84184 -0.002,-1.68369 -0.002,-2.52553 l 6.69068,-3.40952 0,0 c 3.9e-4,0.84173 9.6e-4,1.68345 0.002,2.52518 0.001,1.01247 0.004,2.02499 -0.006,3.03743 -0.016,1.0267 -0.0401,2.05549 -0.17123,3.07525 -0.1395,0.99521 -0.40049,1.97498 -0.32197,2.98725 -6.2e-4,0.98961 0.005,1.98119 -0.0786,2.96811 -0.0947,0.83141 -0.22079,1.67708 -0.75633,2.35351 -0.29307,0.76478 -0.7486,1.47698 -1.21437,2.14524 -0.35995,0.74085 -0.83533,1.41059 -1.17879,2.15783 -0.65348,0.85655 -1.16006,1.82885 -1.87717,2.64707 -0.92472,1.29475 -1.84812,2.59814 -2.59636,4.00451 l -6.8629,3.02683 z"
       inkscape:connector-curvature="0"
       sodipodi:nodetypes="ccccccccccccccccccccccccc" />
    <path
       style="fill:#000000;fill-opacity:1;stroke:#000000;stroke-width:1px;stroke-linecap:butt;stroke-linejoin:miter;stroke-opacity:1"
       d="m 464.74435,387.18924 c 8.5863,-2.0203 3.03046,-28.28427 3.03046,-28.28427 l -9.59645,-1.51523 -1.01015,29.7995 z"
       id="path2995-3"
       inkscape:connector-curvature="0"
       sodipodi:nodetypes="ccccc" />
    <path
       style="fill:#000000;fill-opacity:1;stroke:#000000;stroke-width:1.43021071px;stroke-linecap:butt;stroke-linejoin:miter;stroke-opacity:1"
       d="m 430.44945,389.40424 -6.28808,-12.37042 -0.69235,30.14665 24.47683,5.54005 32.98944,-7.04738 0.69236,-29.39297 -7.72959,9.33995 -8.26851,12.53215 -15.85067,1.49154 -13.7168,-2.72659 z"
       id="path3838"
       inkscape:connector-curvature="0"
       sodipodi:nodetypes="ccccccccccc" />
  </g>
</svg>
